<svg width="54" height="66" viewBox="0 0 54 66" fill="none" xmlns="http://www.w3.org/2000/svg">
<path opacity="0.8" d="M53.1709 21.7333C53.0136 21.3753 52.7938 21.0479 52.5216 20.7664L32.6466 0.966412C32.3641 0.695257 32.0355 0.476255 31.6761 0.319611C31.5767 0.273411 31.4707 0.247011 31.3647 0.210711C31.0874 0.11709 30.7989 0.060497 30.5068 0.0424118C30.4372 0.0358118 30.3743 -0.000488281 30.3047 -0.000488281H7.11719C3.4635 -0.000488281 0.492188 2.95961 0.492188 6.59951V59.3995C0.492188 63.0394 3.4635 65.9995 7.11719 65.9995H46.8672C50.5209 65.9995 53.4922 63.0394 53.4922 59.3995V23.0995C53.4922 23.0302 53.4557 22.9675 53.4491 22.8949C53.431 22.6038 53.3742 22.3164 53.2802 22.0402C53.2493 21.9346 53.2128 21.8323 53.1709 21.7333ZM42.1833 19.7995H33.6172V11.2657L42.1833 19.7995ZM7.11719 59.3995V6.59951H26.9922V23.0995C26.9922 23.9747 27.3412 24.8141 27.9624 25.433C28.5836 26.0518 29.4262 26.3995 30.3047 26.3995H46.8672L46.8738 59.3995H7.11719Z" fill="black" style="fill:black;fill-opacity:1;"/>
<path opacity="0.8" d="M14.4922 33.1995H41.4922V39.7995H14.4922V33.1995ZM14.4922 46.3995H41.4922V52.9995H14.4922V46.3995ZM14.4922 19.9995H21.2422V26.5995H14.4922V19.9995Z" fill="black" style="fill:black;fill-opacity:1;"/>
</svg>
