<svg width="71" height="48" viewBox="0 0 71 48" fill="none" xmlns="http://www.w3.org/2000/svg">
<path d="M9.09906 45.0419C5.86879 45.0419 2.76881 43.5014 1.04792 40.7825C0.650266 40.1534 0.834708 39.3202 1.4608 38.9207C2.08519 38.5194 2.91603 38.7047 3.31368 39.3355C5.04134 42.0646 8.76572 43.1103 11.974 41.7687C14.8794 40.5547 17.4057 37.6709 19.0877 33.6462C20.5395 30.1724 21.2502 26.2582 21.9372 22.4715L22.0286 21.9699C17.7408 21.5942 13.7253 20.3359 10.1888 18.2326C4.78752 15.0223 1.07161 8.8416 0.489514 2.10144C0.425213 1.36009 0.971771 0.705462 1.71123 0.640849C2.44731 0.560932 3.10047 1.12545 3.16477 1.8685C3.66564 7.66666 6.95852 13.1775 11.5543 15.9099C14.8134 17.8483 18.5394 18.9926 22.5295 19.3021C23.23 15.7722 24.0998 12.3664 25.6549 9.24798C26.9815 6.58865 28.6245 4.55504 30.54 3.19986C32.9073 1.52503 35.6756 0.958813 38.136 1.64065C40.9145 2.41261 43.1295 4.856 43.6473 7.71938C44.0889 10.1594 43.3241 12.9258 41.6032 15.1176C38.757 18.7427 33.8803 21.2677 28.5568 21.8696C27.281 22.0142 26.0187 22.0856 24.7749 22.0856H24.7377C24.7326 22.1162 24.7259 22.1468 24.7208 22.1774L24.5803 22.9527C23.868 26.8805 23.1302 30.9427 21.565 34.6885C19.6072 39.3713 16.5681 42.7685 13.0062 44.258C11.7388 44.7868 10.4088 45.0402 9.10076 45.0402L9.09906 45.0419ZM36.0276 4.05854C34.7179 4.05854 33.3388 4.52273 32.0849 5.40861C30.5366 6.50363 29.1796 8.20397 28.0543 10.4586C26.7006 13.1707 25.8985 16.2109 25.2504 19.3854C26.2386 19.3701 27.2421 19.3055 28.254 19.1899C31.826 18.7869 36.6537 17.0662 39.4931 13.4478C40.7453 11.8546 41.3087 9.89411 41.0042 8.20397C40.6708 6.3659 39.197 4.73697 37.4185 4.24217C36.9701 4.11635 36.5031 4.05684 36.0276 4.05684V4.05854Z" fill="#EB1624" style="fill:#EB1624;fill:color(display-p3 0.9216 0.0863 0.1412);fill-opacity:1;"/>
<path d="M17.4202 14.5904C19.499 14.5904 21.1842 12.8862 21.1842 10.784C21.1842 8.68175 19.499 6.97754 17.4202 6.97754C15.3414 6.97754 13.6562 8.68175 13.6562 10.784C13.6562 12.8862 15.3414 14.5904 17.4202 14.5904Z" fill="#EB1624" style="fill:#EB1624;fill:color(display-p3 0.9216 0.0863 0.1412);fill-opacity:1;"/>
<path d="M26.3771 39.7988C26.3771 41.1608 27.253 42.1519 28.7394 42.1519C30.6638 42.1519 30.6638 40.8788 31.697 40.8788C32.3092 40.8788 32.7472 41.4085 32.7472 41.887C32.7472 43.4421 30.28 44.1684 28.7394 44.1684C25.168 44.1684 23.8203 41.7281 23.8203 39.4809C23.8203 36.475 25.6229 34.4585 28.6515 34.4585C31.6801 34.4585 33.2731 36.5638 33.2731 38.6863C33.2731 39.5698 33.011 39.8005 32.1536 39.8005H26.3771V39.7988ZM30.8583 38.312C30.7179 37.1278 29.8437 36.2597 28.7056 36.2597C27.4272 36.2597 26.6578 37.056 26.3771 38.312H30.8583Z" fill="#EB1624" style="fill:#EB1624;fill:color(display-p3 0.9216 0.0863 0.1412);fill-opacity:1;"/>
<path d="M37.0646 39.7988C37.0646 41.1608 37.9406 42.1519 39.427 42.1519C41.3514 42.1519 41.3514 40.8788 42.3846 40.8788C42.9967 40.8788 43.4347 41.4085 43.4347 41.887C43.4347 43.4421 40.9675 44.1684 39.427 44.1684C35.8556 44.1684 34.5078 41.7281 34.5078 39.4809C34.5078 36.475 36.3104 34.4585 39.3391 34.4585C42.3677 34.4585 43.9606 36.5638 43.9606 38.6863C43.9606 39.5698 43.6985 39.8005 42.8412 39.8005H37.0646V39.7988ZM41.5458 38.312C41.4055 37.1278 40.5312 36.2597 39.3932 36.2597C38.1148 36.2597 37.3453 37.056 37.0646 38.312H41.5458Z" fill="#EB1624" style="fill:#EB1624;fill:color(display-p3 0.9216 0.0863 0.1412);fill-opacity:1;"/>
<path d="M45.5938 35.6777C45.5938 34.8813 45.9607 34.4575 46.7487 34.4575C47.5367 34.4575 47.9037 34.8813 47.9037 35.6777V36.0844H47.9392C48.3586 34.9873 49.3918 34.4575 50.6347 34.4575C52.7704 34.4575 54.6424 36.0314 54.6424 39.374C54.6424 41.8502 53.3995 44.1674 50.704 44.1674C49.5321 44.1674 48.6562 43.6906 48.1844 42.8584H48.1489V46.307C48.1489 47.1563 47.6416 47.5989 46.8722 47.5989C46.1027 47.5989 45.5938 47.1563 45.5938 46.307V35.6777ZM50.0564 36.474C48.5683 36.474 48.0085 37.8172 48.0085 39.2851C48.0085 40.6112 48.4989 42.1697 50.0564 42.1509C51.6848 42.1509 52.0873 40.4882 52.0873 39.2851C52.0873 37.7642 51.4227 36.5082 50.0564 36.474Z" fill="#EB1624" style="fill:#EB1624;fill:color(display-p3 0.9216 0.0863 0.1412);fill-opacity:1;"/>
<path d="M56.4062 32.2646C56.4062 31.4153 56.9136 30.9727 57.6847 30.9727C58.4558 30.9727 58.9614 31.4153 58.9614 32.2646V42.8768C58.9614 43.7261 58.4541 44.1687 57.6847 44.1687C56.9152 44.1687 56.4062 43.7261 56.4062 42.8768V32.2646Z" fill="#EB1624" style="fill:#EB1624;fill:color(display-p3 0.9216 0.0863 0.1412);fill-opacity:1;"/>
<path d="M63.2834 39.7988C63.2834 41.1608 64.1576 42.1519 65.6457 42.1519C67.5718 42.1519 67.5718 40.8788 68.6033 40.8788C69.2155 40.8788 69.6535 41.4085 69.6535 41.887C69.6535 43.4421 67.1863 44.1684 65.6457 44.1684C62.0743 44.1684 60.7266 41.7281 60.7266 39.4809C60.7266 36.475 62.5292 34.4585 65.5578 34.4585C68.5864 34.4585 70.1794 36.5638 70.1794 38.6863C70.1794 39.5698 69.9173 39.8005 69.0599 39.8005H63.2834V39.7988ZM67.7646 38.312C67.6242 37.1278 66.75 36.2597 65.6119 36.2597C64.3335 36.2597 63.5641 37.056 63.2834 38.312H67.7646Z" fill="#EB1624" style="fill:#EB1624;fill:color(display-p3 0.9216 0.0863 0.1412);fill-opacity:1;"/>
<path d="M30.2081 31.083C27.5822 31.083 24.9325 30.4635 22.5926 29.2869C21.917 28.9468 21.6242 28.0791 21.9391 27.3493C22.2539 26.6195 23.0589 26.3033 23.7328 26.6434C26.1527 27.8604 28.9658 28.3751 31.6581 28.0902C34.3452 27.8071 36.9915 26.7188 39.1051 25.0275C39.7042 24.5477 40.55 24.6837 40.9941 25.3327C41.4383 25.9797 41.3124 26.8934 40.7133 27.3732C38.21 29.3752 35.0889 30.662 31.9201 30.9966C31.3534 31.0554 30.7799 31.0848 30.2064 31.0848L30.2081 31.083Z" fill="#EB1624" style="fill:#EB1624;fill:color(display-p3 0.9216 0.0863 0.1412);fill-opacity:1;"/>
</svg>
