<svg width="129" height="97" viewBox="0 0 129 97" fill="none" xmlns="http://www.w3.org/2000/svg">
<path d="M15.7771 80.0276C9.8603 80.0276 4.18215 77.2514 1.03003 72.3519C0.301661 71.2181 0.639499 69.7167 1.78629 68.9966C2.92998 68.2735 4.4518 68.6075 5.18016 69.7443C8.34468 74.6622 15.1665 76.5467 21.043 74.1291C26.3648 71.9413 30.9922 66.7445 34.073 59.4917C36.7323 53.2316 38.0341 46.178 39.2925 39.3541L39.4598 38.4502C31.6059 37.773 24.2509 35.5056 17.7731 31.7152C7.87976 25.9301 1.07342 14.7919 0.00721576 2.64569C-0.110562 1.30972 0.890553 0.130024 2.245 0.0135864C3.59325 -0.130428 4.78963 0.886867 4.90741 2.2259C5.82484 12.6746 11.8563 22.6055 20.2744 27.5296C26.2439 31.0227 33.0688 33.0849 40.3773 33.6426C41.6604 27.2814 43.2535 21.1439 46.1019 15.5243C48.5319 10.732 51.5414 7.06724 55.05 4.62512C59.3861 1.60694 64.4567 0.586581 68.9633 1.8153C74.0525 3.20642 78.1097 7.6096 79.0581 12.7696C79.8671 17.1667 78.4661 22.152 75.314 26.1017C70.1008 32.6345 61.1682 37.1847 51.4174 38.2694C49.0805 38.5299 46.7683 38.6586 44.4902 38.6586H44.422C44.4127 38.7137 44.4003 38.7689 44.391 38.824L44.1338 40.2213C42.8289 47.2994 41.4776 54.6197 38.6106 61.37C35.0246 69.8086 29.458 75.9308 22.9337 78.615C20.6122 79.5679 18.1761 80.0245 15.7802 80.0245L15.7771 80.0276ZM65.1014 6.17251C62.7024 6.17251 60.1764 7.00903 57.8797 8.60544C55.0438 10.5788 52.558 13.6429 50.4969 17.7059C48.0173 22.5933 46.5482 28.0719 45.3611 33.7927C47.1712 33.7651 49.0092 33.6487 50.8626 33.4403C57.4055 32.7141 66.2482 29.6132 71.449 23.0927C73.7426 20.2216 74.7747 16.6887 74.2168 13.6429C73.6062 10.3306 70.9066 7.39511 67.6491 6.50344C66.8278 6.2767 65.9723 6.16945 65.1014 6.16945V6.17251Z" fill="#EB1624" style="fill:#EB1624;fill:color(display-p3 0.9216 0.0863 0.1412);fill-opacity:1;"/>
<path d="M31.2736 24.7874C35.0395 24.7874 38.0923 21.7693 38.0923 18.0462C38.0923 14.3232 35.0395 11.3051 31.2736 11.3051C27.5077 11.3051 24.4548 14.3232 24.4548 18.0462C24.4548 21.7693 27.5077 24.7874 31.2736 24.7874Z" fill="#EB1624" style="fill:#EB1624;fill:color(display-p3 0.9216 0.0863 0.1412);fill-opacity:1;"/>
<path d="M47.4632 70.2286C47.4632 72.6707 49.0687 74.4479 51.7931 74.4479C55.3202 74.4479 55.3202 72.1651 57.214 72.1651C58.336 72.1651 59.1387 73.115 59.1387 73.973C59.1387 76.7613 54.6167 78.0636 51.7931 78.0636C45.2471 78.0636 42.7769 73.688 42.7769 69.6587C42.7769 64.2688 46.0808 60.6531 51.6319 60.6531C57.183 60.6531 60.1027 64.4282 60.1027 68.2338C60.1027 69.818 59.6222 70.2316 58.0508 70.2316H47.4632V70.2286ZM55.6767 67.5628C55.4194 65.4393 53.817 63.8827 51.7311 63.8827C49.3879 63.8827 47.9777 65.3106 47.4632 67.5628H55.6767Z" fill="#EB1624" style="fill:#EB1624;fill:color(display-p3 0.9216 0.0863 0.1412);fill-opacity:1;"/>
<path d="M67.0604 70.2286C67.0604 72.6707 68.6659 74.4479 71.3903 74.4479C74.9174 74.4479 74.9174 72.1651 76.8112 72.1651C77.9332 72.1651 78.7359 73.115 78.7359 73.973C78.7359 76.7613 74.2138 78.0636 71.3903 78.0636C64.8443 78.0636 62.374 73.688 62.374 69.6587C62.374 64.2688 65.678 60.6531 71.2291 60.6531C76.7802 60.6531 79.6998 64.4282 79.6998 68.2338C79.6998 69.818 79.2194 70.2316 77.648 70.2316H67.0604V70.2286ZM75.2738 67.5628C75.0166 65.4393 73.4142 63.8827 71.3283 63.8827C68.9851 63.8827 67.5749 65.3106 67.0604 67.5628H75.2738Z" fill="#EB1624" style="fill:#EB1624;fill:color(display-p3 0.9216 0.0863 0.1412);fill-opacity:1;"/>
<path d="M82.6802 62.8379C82.6802 61.41 83.3527 60.6501 84.7971 60.6501C86.2414 60.6501 86.914 61.41 86.914 62.8379V63.5672H86.9791C87.7477 61.6 89.6415 60.6501 91.9196 60.6501C95.8341 60.6501 99.2652 63.4722 99.2652 69.4657C99.2652 73.9056 96.9871 78.0606 92.0466 78.0606C89.8987 78.0606 88.2932 77.2057 87.4285 75.7134H87.3634V81.8969C87.3634 83.4198 86.4336 84.2134 85.0233 84.2134C83.6131 84.2134 82.6802 83.4198 82.6802 81.8969V62.8379ZM90.8596 64.2658C88.1321 64.2658 87.1062 66.6742 87.1062 69.3063C87.1062 71.6841 88.005 74.4786 90.8596 74.4449C93.8443 74.4449 94.582 71.4635 94.582 69.3063C94.582 66.5792 93.3639 64.3271 90.8596 64.2658Z" fill="#EB1624" style="fill:#EB1624;fill:color(display-p3 0.9216 0.0863 0.1412);fill-opacity:1;"/>
<path d="M102.509 56.7188C102.509 55.1959 103.439 54.4023 104.852 54.4023C106.265 54.4023 107.192 55.1959 107.192 56.7188V75.7471C107.192 77.27 106.262 78.0636 104.852 78.0636C103.442 78.0636 102.509 77.27 102.509 75.7471V56.7188Z" fill="#EB1624" style="fill:#EB1624;fill:color(display-p3 0.9216 0.0863 0.1412);fill-opacity:1;"/>
<path d="M115.108 70.2286C115.108 72.6707 116.711 74.4479 119.438 74.4479C122.969 74.4479 122.969 72.1651 124.859 72.1651C125.981 72.1651 126.784 73.115 126.784 73.973C126.784 76.7613 122.262 78.0636 119.438 78.0636C112.892 78.0636 110.422 73.688 110.422 69.6587C110.422 64.2688 113.726 60.6531 119.277 60.6531C124.828 60.6531 127.748 64.4282 127.748 68.2338C127.748 69.818 127.268 70.2316 125.696 70.2316H115.108V70.2286ZM123.322 67.5628C123.065 65.4393 121.462 63.8827 119.376 63.8827C117.033 63.8827 115.623 65.3106 115.108 67.5628H123.322Z" fill="#EB1624" style="fill:#EB1624;fill:color(display-p3 0.9216 0.0863 0.1412);fill-opacity:1;"/>
<path d="M54.0643 54.292C49.2819 54.292 44.4561 53.2594 40.1944 51.2983C38.9639 50.7314 38.4308 49.2852 39.0042 48.0687C39.5776 46.8522 41.0436 46.3252 42.271 46.8921C46.6784 48.9205 51.8018 49.7785 56.705 49.3035C61.599 48.8317 66.4187 47.0177 70.2682 44.1987C71.3591 43.3989 72.8996 43.6257 73.7085 44.7073C74.5175 45.7859 74.2881 47.3088 73.1971 48.1085C68.6378 51.4454 62.9535 53.5903 57.1824 54.148C56.1503 54.246 55.1057 54.295 54.0612 54.295L54.0643 54.292Z" fill="#EB1624" style="fill:#EB1624;fill:color(display-p3 0.9216 0.0863 0.1412);fill-opacity:1;"/>
<path d="M5.88388 89.0823V90.4274H2.32884V92.1066H5.40967V93.3476H2.32884V96.3504H0.710938V89.0792H5.88078L5.88388 89.0823Z" fill="#EB1624" style="fill:#EB1624;fill:color(display-p3 0.9216 0.0863 0.1412);fill-opacity:1;"/>
<path d="M14.3841 89.0822V90.4274H10.5005V91.984H14.0649V93.2249H10.5005V95.0083H14.4678V96.3534H8.88574V89.0822H14.3872H14.3841Z" fill="#EB1624" style="fill:#EB1624;fill:color(display-p3 0.9216 0.0863 0.1412);fill-opacity:1;"/>
<path d="M23.1187 89.0822V90.4274H19.2352V91.984H22.7995V93.2249H19.2352V95.0083H23.2024V96.3534H17.6204V89.0822H23.1218H23.1187Z" fill="#EB1624" style="fill:#EB1624;fill:color(display-p3 0.9216 0.0863 0.1412);fill-opacity:1;"/>
<path d="M29.5243 89.0822C29.9985 89.0822 30.4387 89.1558 30.8478 89.3059C31.2569 89.456 31.6102 89.6797 31.9078 89.9769C32.2053 90.2772 32.4409 90.648 32.6083 91.0984C32.7756 91.5458 32.8593 92.0728 32.8593 92.6765C32.8593 93.2066 32.7911 93.6937 32.6547 94.1442C32.5184 94.5915 32.3107 94.9807 32.0318 95.3055C31.7528 95.6303 31.4057 95.8877 30.9904 96.0746C30.575 96.2615 30.0853 96.3534 29.5212 96.3534H26.3474V89.0822H29.5212H29.5243ZM29.4096 95.0083C29.6421 95.0083 29.8684 94.9715 30.0884 94.8949C30.3085 94.8214 30.5037 94.6957 30.6742 94.5241C30.8447 94.3525 30.9842 94.1258 31.0864 93.847C31.1887 93.5681 31.2414 93.228 31.2414 92.8297C31.2414 92.462 31.2042 92.131 31.1329 91.8369C31.0616 91.5427 30.9439 91.2884 30.7765 91.077C30.6091 90.8655 30.3922 90.7062 30.1225 90.5928C29.8498 90.4795 29.515 90.4243 29.1183 90.4243H27.9653V95.0083H29.4065H29.4096Z" fill="#EB1624" style="fill:#EB1624;fill:color(display-p3 0.9216 0.0863 0.1412);fill-opacity:1;"/>
<path d="M39.4999 89.0823C39.8501 89.0823 40.1694 89.1129 40.4576 89.1742C40.7459 89.2355 40.9938 89.3366 41.1984 89.4745C41.4029 89.6124 41.5641 89.7993 41.6788 90.0291C41.7935 90.2589 41.8493 90.5439 41.8493 90.884C41.8493 91.2517 41.7656 91.555 41.5982 91.8002C41.4308 92.0453 41.1798 92.2445 40.8513 92.4007C41.3038 92.5294 41.6416 92.7562 41.8648 93.0779C42.0879 93.3996 42.1995 93.7888 42.1995 94.2423C42.1995 94.61 42.1282 94.9256 41.9825 95.1952C41.8369 95.4649 41.6447 95.6824 41.3999 95.851C41.155 96.0195 40.8791 96.1451 40.5661 96.2278C40.2531 96.3106 39.9338 96.3504 39.6022 96.3504H36.0378V89.0792H39.4999V89.0823ZM39.2953 92.0269C39.5836 92.0269 39.8222 91.9595 40.0051 91.8216C40.188 91.6837 40.2841 91.4662 40.2841 91.1597C40.2841 90.9912 40.2531 90.8503 40.1911 90.743C40.1291 90.6358 40.0454 90.55 39.9431 90.4887C39.8408 90.4274 39.7231 90.3845 39.5867 90.36C39.4534 90.3355 39.3139 90.3232 39.1683 90.3232H37.6526V92.0238H39.2891L39.2953 92.0269ZM39.3883 95.1125C39.5464 95.1125 39.6983 95.0972 39.8408 95.0665C39.9834 95.0359 40.1136 94.9838 40.2221 94.9133C40.3305 94.8428 40.4204 94.7448 40.4855 94.6222C40.5506 94.4997 40.5847 94.3434 40.5847 94.1534C40.5847 93.7796 40.4793 93.513 40.2655 93.3537C40.0516 93.1943 39.7696 93.1147 39.4193 93.1147H37.6588V95.1094H39.3883V95.1125Z" fill="#EB1624" style="fill:#EB1624;fill:color(display-p3 0.9216 0.0863 0.1412);fill-opacity:1;"/>
<path d="M49.0243 89.0822L51.7735 96.3534H50.0936L49.5388 94.7356H46.7896L46.2131 96.3534H44.5859L47.3661 89.0822H49.0243ZM49.1173 93.5436L48.1906 90.8747H48.1689L47.2112 93.5436H49.1173Z" fill="#EB1624" style="fill:#EB1624;fill:color(display-p3 0.9216 0.0863 0.1412);fill-opacity:1;"/>
<path d="M59.1871 91.0218C59.091 90.8686 58.9702 90.7338 58.8276 90.6204C58.6819 90.504 58.5207 90.4151 58.3379 90.3508C58.155 90.2865 57.9659 90.2528 57.7676 90.2528C57.4049 90.2528 57.095 90.3232 56.8408 90.4611C56.5867 90.599 56.3821 90.7859 56.2241 91.0218C56.066 91.2547 55.9513 91.5213 55.88 91.8216C55.8087 92.1219 55.7715 92.4283 55.7715 92.747C55.7715 93.0656 55.8087 93.3506 55.88 93.6386C55.9513 93.9267 56.066 94.1871 56.2241 94.4169C56.3821 94.6467 56.5867 94.8336 56.8408 94.9715C57.095 95.1094 57.4049 95.1799 57.7676 95.1799C58.2635 95.1799 58.6478 95.0298 58.9268 94.7325C59.2057 94.4353 59.3762 94.04 59.4382 93.5498H61.0034C60.9631 94.0063 60.8546 94.4169 60.6841 94.7816C60.5137 95.1493 60.2843 95.4618 60.0054 95.7192C59.7233 95.9766 59.3948 96.1727 59.0166 96.3106C58.6385 96.4454 58.2232 96.5159 57.7707 96.5159C57.2066 96.5159 56.7014 96.4178 56.252 96.2248C55.8025 96.0317 55.4213 95.7652 55.1145 95.425C54.8045 95.0849 54.569 94.6866 54.4047 94.227C54.2404 93.7673 54.1567 93.274 54.1567 92.747C54.1567 92.2199 54.2404 91.699 54.4047 91.2333C54.569 90.7675 54.8076 90.3631 55.1145 90.0168C55.4213 89.6706 55.8025 89.3979 56.252 89.2017C56.7014 89.0056 57.2066 88.9076 57.7707 88.9076C58.1767 88.9076 58.5579 88.9658 58.9206 89.0792C59.2801 89.1956 59.6024 89.3641 59.8876 89.5848C60.1727 89.8054 60.4083 90.0781 60.5943 90.406C60.7802 90.7338 60.8949 91.1046 60.9445 91.5274H59.3793C59.3514 91.3436 59.2894 91.1751 59.1933 91.0218H59.1871Z" fill="#EB1624" style="fill:#EB1624;fill:color(display-p3 0.9216 0.0863 0.1412);fill-opacity:1;"/>
<path d="M65.7814 89.0823V92.0974L68.6546 89.0823H70.6723L67.7991 91.9534L70.9512 96.3535H68.9211L66.705 93.084L65.7783 94.0094V96.3504H64.1604V89.0792H65.7783L65.7814 89.0823Z" fill="#EB1624" style="fill:#EB1624;fill:color(display-p3 0.9216 0.0863 0.1412);fill-opacity:1;"/>
<path d="M81.9001 89.0822C82.3588 89.0822 82.7525 89.1496 83.0748 89.2814C83.3972 89.4131 83.6606 89.5878 83.8621 89.8053C84.0635 90.0229 84.2123 90.2711 84.3053 90.5499C84.3983 90.8288 84.4448 91.1168 84.4448 91.4171C84.4448 91.7174 84.3983 91.9962 84.3053 92.2781C84.2123 92.56 84.0635 92.8082 83.8621 93.0258C83.6606 93.2433 83.3972 93.418 83.0748 93.5497C82.7525 93.6815 82.3619 93.7489 81.9001 93.7489H80.2016V96.3565H78.5837V89.0853H81.9001V89.0822ZM81.4569 92.5049C81.6429 92.5049 81.8195 92.4926 81.9931 92.465C82.1636 92.4375 82.3155 92.3854 82.4456 92.3057C82.5758 92.2291 82.6812 92.1188 82.7587 91.9748C82.8362 91.8338 82.8765 91.6469 82.8765 91.414C82.8765 91.1811 82.8362 90.9973 82.7587 90.8533C82.6812 90.7093 82.5758 90.599 82.4456 90.5224C82.3155 90.4458 82.1636 90.3906 81.9931 90.363C81.8226 90.3354 81.6429 90.3232 81.4569 90.3232H80.2016V92.5018H81.4569V92.5049Z" fill="#EB1624" style="fill:#EB1624;fill:color(display-p3 0.9216 0.0863 0.1412);fill-opacity:1;"/>
<path d="M93.0142 89.0822V90.4274H89.1306V91.984H92.6949V93.2249H89.1306V95.0083H93.0948V96.3534H87.5127V89.0822H93.0142Z" fill="#EB1624" style="fill:#EB1624;fill:color(display-p3 0.9216 0.0863 0.1412);fill-opacity:1;"/>
<path d="M96.1818 91.2363C96.3461 90.7705 96.5847 90.3661 96.8916 90.0198C97.1984 89.6736 97.5796 89.4009 98.029 89.2048C98.4785 89.0087 98.9837 88.9106 99.5478 88.9106C100.112 88.9106 100.626 89.0087 101.073 89.2048C101.519 89.4009 101.897 89.6736 102.207 90.0198C102.517 90.3661 102.753 90.7705 102.917 91.2363C103.081 91.702 103.165 92.2046 103.165 92.75C103.165 93.2954 103.081 93.7734 102.917 94.23C102.753 94.6896 102.514 95.0879 102.207 95.428C101.897 95.7682 101.522 96.0347 101.073 96.2278C100.626 96.4208 100.118 96.5189 99.5478 96.5189C98.9775 96.5189 98.4785 96.4208 98.029 96.2278C97.5796 96.0347 97.1984 95.7682 96.8916 95.428C96.5816 95.0879 96.3461 94.6896 96.1818 94.23C96.0175 93.7703 95.9338 93.277 95.9338 92.75C95.9338 92.223 96.0175 91.702 96.1818 91.2363ZM97.6571 93.6386C97.7284 93.9266 97.8431 94.1871 98.0012 94.4169C98.1592 94.6467 98.3638 94.8336 98.6179 94.9715C98.8721 95.1094 99.182 95.1798 99.5447 95.1798C99.9073 95.1798 100.217 95.1094 100.471 94.9715C100.726 94.8336 100.93 94.6467 101.088 94.4169C101.246 94.1871 101.361 93.9266 101.432 93.6386C101.504 93.3506 101.541 93.0533 101.541 92.7469C101.541 92.4405 101.504 92.1188 101.432 91.8216C101.361 91.5243 101.246 91.2577 101.088 91.0218C100.93 90.7889 100.726 90.602 100.471 90.4611C100.217 90.3201 99.9073 90.2527 99.5447 90.2527C99.182 90.2527 98.8721 90.3232 98.6179 90.4611C98.3638 90.599 98.1592 90.7859 98.0012 91.0218C97.8431 91.2547 97.7284 91.5213 97.6571 91.8216C97.5858 92.1218 97.5486 92.4282 97.5486 92.7469C97.5486 93.0656 97.5858 93.3506 97.6571 93.6386Z" fill="#EB1624" style="fill:#EB1624;fill:color(display-p3 0.9216 0.0863 0.1412);fill-opacity:1;"/>
<path d="M109.642 89.0822C110.101 89.0822 110.494 89.1496 110.817 89.2814C111.139 89.4131 111.403 89.5878 111.604 89.8053C111.805 90.0229 111.954 90.2711 112.047 90.5499C112.14 90.8288 112.187 91.1168 112.187 91.4171C112.187 91.7174 112.14 91.9962 112.047 92.2781C111.954 92.56 111.805 92.8082 111.604 93.0258C111.403 93.2433 111.139 93.418 110.817 93.5497C110.494 93.6815 110.104 93.7489 109.642 93.7489H107.944V96.3565H106.326V89.0853H109.642V89.0822ZM109.199 92.5049C109.385 92.5049 109.561 92.4926 109.735 92.465C109.906 92.4375 110.057 92.3854 110.188 92.3057C110.318 92.2291 110.423 92.1188 110.501 91.9748C110.578 91.8338 110.618 91.6469 110.618 91.414C110.618 91.1811 110.578 90.9973 110.501 90.8533C110.423 90.7093 110.318 90.599 110.188 90.5224C110.057 90.4458 109.906 90.3906 109.735 90.363C109.565 90.3354 109.385 90.3232 109.199 90.3232H107.944V92.5018H109.199V92.5049Z" fill="#EB1624" style="fill:#EB1624;fill:color(display-p3 0.9216 0.0863 0.1412);fill-opacity:1;"/>
<path d="M116.869 89.0822V95.0083H120.455V96.3534H115.255V89.0822H116.873H116.869Z" fill="#EB1624" style="fill:#EB1624;fill:color(display-p3 0.9216 0.0863 0.1412);fill-opacity:1;"/>
<path d="M128.923 89.0822V90.4274H125.04V91.984H128.604V93.2249H125.04V95.0083H129.004V96.3534H123.422V89.0822H128.923Z" fill="#EB1624" style="fill:#EB1624;fill:color(display-p3 0.9216 0.0863 0.1412);fill-opacity:1;"/>
</svg>
